/* XPM */
static char *result[] = {
/* columns rows colors chars-per-pixel */
"64 64 222 2 ",
"   c #44799E",
".  c #4A80A0",
"X  c #4B81A1",
"o  c #4B81A2",
"O  c #4B82A2",
"+  c #4B82A3",
"@  c #4C82A3",
"#  c #4C83A4",
"$  c #4E83A4",
"%  c #4E85A4",
"&  c #4E85A6",
"*  c #5085A6",
"=  c #5086A6",
"-  c #5087A6",
";  c #5187A6",
":  c #5287A6",
">  c #5387A8",
",  c #5487A8",
"<  c #5488A8",
"1  c #5489A8",
"2  c #5589A8",
"3  c #5689A8",
"4  c #5689A9",
"5  c #568AAA",
"6  c #568BAA",
"7  c #588BAA",
"8  c #598CAA",
"9  c #5A8DAA",
"0  c #5A8DAC",
"q  c #5B8DAC",
"w  c #5C8EAC",
"e  c #5C8FAC",
"r  c #5E8FAD",
"t  c #5F90AE",
"y  c #5F91AE",
"u  c #6191AE",
"i  c #6192AF",
"p  c #6292AF",
"a  c #6392AF",
"s  c #6393B0",
"d  c #6595B1",
"f  c #6796B2",
"g  c #6896B2",
"h  c #6997B3",
"j  c #6998B3",
"k  c #6A98B3",
"l  c #6B98B3",
"z  c #6B98B4",
"x  c #6C99B4",
"c  c #6C9AB5",
"v  c #6D9AB5",
"b  c #6E9AB5",
"n  c #6E9BB5",
"m  c #6F9BB5",
"M  c #709CB7",
"N  c #719DB7",
"B  c #729DB7",
"V  c #729EB7",
"C  c #739EB8",
"Z  c #749FB8",
"A  c #759FB9",
"S  c #76A0B9",
"D  c #78A1BA",
"F  c #79A1BA",
"G  c #79A2BB",
"H  c #7AA3BC",
"J  c #7BA3BC",
"K  c #7BA4BC",
"L  c #7CA4BC",
"P  c #7CA5BC",
"I  c #7EA5BD",
"U  c #7EA6BE",
"Y  c #80A6BE",
"T  c #81A8BF",
"R  c #82A8BF",
"E  c #83A8C0",
"W  c #83A9C0",
"Q  c #83AAC0",
"!  c #84AAC1",
"~  c #85AAC1",
"^  c #86ABC1",
"/  c #87ABC2",
"(  c #88ACC2",
")  c #88ADC3",
"_  c #8AAEC3",
"`  c #8BAEC4",
"'  c #8BAFC4",
"]  c #8CB0C4",
"[  c #8DB0C5",
"{  c #8EB0C6",
"}  c #8EB1C6",
"|  c #90B2C6",
" . c #91B3C7",
".. c #92B3C8",
"X. c #93B4C8",
"o. c #93B5C8",
"O. c #93B5C9",
"+. c #95B5C9",
"@. c #96B6C9",
"#. c #96B6CA",
"$. c #97B7CA",
"%. c #98B8CB",
"&. c #99B8CB",
"*. c #99B9CC",
"=. c #9AB9CC",
"-. c #9BB9CC",
";. c #9CBBCC",
":. c #9CBBCD",
">. c #9DBBCD",
",. c #9EBBCE",
"<. c #9EBCCE",
"1. c #9FBCCE",
"2. c #A0BDCF",
"3. c #A1BECF",
"4. c #A2BECF",
"5. c #A2BFCF",
"6. c #A2BFD0",
"7. c #A3BFD0",
"8. c #A5C0D1",
"9. c #A5C1D1",
"0. c #A6C1D2",
"q. c #A6C2D2",
"w. c #A8C3D3",
"e. c #A9C3D3",
"r. c #AAC4D4",
"t. c #ABC5D4",
"y. c #AFC7D6",
"u. c #B0C8D6",
"i. c #B1C9D7",
"p. c #B1C9D8",
"a. c #B2CAD8",
"s. c #B4CBD9",
"d. c #B5CCD9",
"f. c #B5CCDA",
"g. c #B6CDDA",
"h. c #B7CDDA",
"j. c #B7CEDA",
"k. c #B8CEDB",
"l. c #BACFDC",
"z. c #BBCFDC",
"x. c #BBD0DD",
"c. c #BFD3DE",
"v. c #BFD3DF",
"b. c #C0D3DF",
"n. c #C0D4DF",
"m. c #C1D4E0",
"M. c #C5D7E1",
"N. c #C5D7E2",
"B. c #C6D7E2",
"V. c #C7D8E2",
"C. c #C7D9E3",
"Z. c #C8D9E3",
"A. c #C9DAE3",
"S. c #CADBE4",
"D. c #CCDCE5",
"F. c #CDDCE6",
"G. c #CDDDE6",
"H. c #CEDDE6",
"J. c #CFDEE7",
"K. c #D0DEE7",
"L. c #D1DFE8",
"P. c #D2DFE8",
"I. c #D5E2EA",
"U. c #D6E2EA",
"Y. c #D6E3EA",
"T. c #D7E3EB",
"R. c #D8E4EB",
"E. c #D9E5EC",
"W. c #DAE5EC",
"Q. c #DAE6EC",
"!. c #DBE6ED",
"~. c #DCE7ED",
"^. c #DEE8EE",
"/. c #DFE9EF",
"(. c #E0EAEF",
"). c #E1EAF0",
"_. c #E1EBF0",
"`. c #E3EBF1",
"'. c #E4ECF1",
"]. c #E5EDF2",
"[. c #E6EDF2",
"{. c #E6EEF2",
"}. c #E7EEF2",
"|. c #E7EEF3",
" X c #E7EFF3",
".X c #E9EFF4",
"XX c #E9F0F4",
"oX c #EAF0F4",
"OX c #EBF1F5",
"+X c #ECF2F5",
"@X c #EDF2F6",
"#X c #EDF3F6",
"$X c #EEF3F6",
"%X c #EFF4F7",
"&X c #F0F5F7",
"*X c #F0F5F8",
"=X c #F1F5F8",
"-X c #F1F6F8",
";X c #F2F6F8",
":X c #F3F6F9",
">X c #F3F7F9",
",X c #F4F7FA",
"<X c #F5F8FA",
"1X c #F6F8FA",
"2X c #F6F9FA",
"3X c #F6F9FB",
"4X c #F7F9FB",
"5X c #F7FAFB",
"6X c #F8FAFB",
"7X c #F9FAFC",
"8X c #F9FBFC",
"9X c #FAFCFD",
"0X c #FBFCFD",
"qX c #FCFDFD",
"wX c #FCFDFE",
"eX c #FDFDFE",
"rX c #FDFEFE",
"tX c #FEFEFE",
"yX c #FEFEFF",
"uX c #FEFFFF",
"iX c white",
"pX c None",
/* pixels */
"pXpXpXpXpXpXpXpXpXpXpXpXpXpXpXpXpXpXpXpXpXpXpXpXpXpXpXpXpXpXpXpXpXpXpXpXpXpXpXpXpXpXpXpXpXpXpXpXpXpXpXpXpXpXpXpXpXpXpXpXpXpXpXpX",
"pXpXpXpXpXpXpXpXpXpXpXpXpXpXpXpXpXpXpXpXpXpXpXpXpXpXpXpXpXpXpXpXpXpXpXpXpXpXpXpXpXpXpXpXpXpXpXpXpXpXpXpXpXpXpXpXpXpXpXpXpXpXpXpX",
"pXpXpXpXpXpXpXpXpXpXpXpXpXpXpXpXpXpXpXpXpXpXpXpXpXpXpXpXpXpXpXpXpXpXpXpXpXpXpXpXpXpXpXpXpXpXpXpXpXpXpXpXpXpXpXpXpXpXpXpXpXpXpXpX",
"pXpXpXpXpXpXpXpXpXpXpXpXpXpXpXpXpXpXpXpXpXpXpXpXpXpXpXpXpXpXpXpXpXpXpXpXpXpXpXpXpXpXpXpXpXpXpXpXpXpXpXpXpXpXpXpXpXpXpXpXpXpXpXpX",
"pXpXpXpXpXpXpXpXpXpXpXpXpXpXpXpXpXpXpXpXpXpXpXpXpXpXpXpXpXpXpXpXpXpXpXpXpXpXpXpXpXpXpXpXpXpXpXpXpXpXpXpXpXpXpXpXpXpXpXpXpXpXpXpX",
"pXpXpXpXpXpXpXpXpXpXpXpXpXpXpXpXpXpXpXpXpXpXpXpXpXpXpXpXpXpXpXpXpXpXpXpXpXpXpXpXpXpXpXpXpXpXpXpXpXpXpXpXpXpXpXpXpXpXpXpXpXpXpXpX",
"pXpXpXpXpXpXpXpXpXpXpXpXpXpXpXpXpXpXpXpXpXpXpXpXpXpXpXpXpXpXpXpXpXpXpXpXpXpXpXpXpXpXpXpXpXpXpXpXpXpXpXpXpXpXpXpXpXpXpXpXpXpXpXpX",
"pXpXpXpXpXpXpXpXpXpXpXpXpXpXpXpXpXpXpXpXpXpXpXpXpXpXpXpXpXpXpXpXpXpXpXpXpXpXpXpXpXpXpXpXpXpXpXpXpXpXpXpXpXpXpXpXpXpXpXpXpXpXpXpX",
"pXpXpXpXpXpXpXpXpXpXpXpXpXpXpXpXpXpXpXpXpXpXpXpXpXpXpXpXpXpXpXpXpXpXpXpXpXpXpXpXpXpXpXpXpXpXpXpXpXpXpXpXpXpXpXpXpXpXpXpXpXpXpXpX",
"pXpXpXpXpXpXpXpXpXpXpXpXpXpXpXpXpXpXpXpXpXpXpXpXpXpXpXpXpXpXpXpXpXpXpXpXpXpXpXpXpXpXpXpXpXpXpXpXpXpXpXpXpXpXpXpXpXpXpXpXpXpXpXpX",
"pXpXpXpXpXpXpXpXpXpXpXpXpXpXpXpXpXpXpXpXpXpXpXpXpXpXpXpXpXpXpXpXpXpXpXpXpXpXpXpXpXpXpXpXpXpXpXpXpXpXpXpXpXpXpXpXpXpXpXpXpXpXpXpX",
"pXpXpXpXpXpXpXpXpXpXpXpXpXpXpXpXpXpXpXpXpXpXpXpXpXpXpXpXpXpXpXpXpXpXpXpXpXpXpXpXpXpXpXpXpXpXpXpXpXpXpXpXpXpXpXpXpXpXpXpXpXpXpXpX",
"pXpXpXpXpXpXpXpXpXpXpXpXpXpXpXpXpXpXpXpXpXpXpXpXpXpXpXpXpXpXpXpXpXpXpXpXpXpXpXpXpXpXpXpXpXpXpXpXpXpXpXpXpXpXpXpXpXpXpXpXpXpXpXpX",
"pXpXpXpXpXpXpXpXpXpXpXpXpXpXpXpXpXpXpXpXpXpXpXpXpXpXpXpXpXpXpXpXpXpXpXpXpXpXpXpXpXpXpXpXpXpXpXpXpXpXpXpXpXpXpXpXpXpXpXpXpXpXpXpX",
"pXpXpXpXpXpXpXpXpXpXpXpXpXpXpXpXpXpXpXpXpXpXpXpXpXpXpXpXpXpXpXpXpXpXpXpXpXpXpXpXpXpXpXpXpXpXpXpXpXpXpXpXpXpXpXpXpXpXpXpXpXpXpXpX",
"pXpXpXpXpXpXpXpXpXpXpXpXpXpXpXpXpXpXpXpXpXpXpXpXpXpXpXpXpXpXpXpXpXpXpXpXpXpXpXpXpXpXpXpXpXpXpXpXpXpXpXpXpXpXpXpXpXpXpXpXpXpXpXpX",
"pXpXpXpXpXpXpXpXpXpXpXpXpXpXpX# # # # # # # # # # # # # # # # # # # # # # # # # # # # # # # @ + o . pXpXpXpXpXpXpXpXpXpXpXpXpXpX",
"pXpXpXpXpXpXpXpXpXpXpXpXpXpXpX# # # # # # # # # # # # # $ * 3 8 q 0 7 2 * # # # # # # # # # @ + o . pXpXpXpXpXpXpXpXpXpXpXpXpXpX",
"pXpXpXpXpXpXpXpXpXpXpXpXpXpXpX# # # # # # # # # # $ * 7 p v F U U M h s w 7 1 * $ # # # # # @ + o . pXpXpXpXpXpXpXpXpXpXpXpXpXpX",
"pXpXpXpXpXpXpXpXpXpXpXpXpXpXpX# # # # # # # # # # : e ~ z./.*X4X-Xc.e.3.5.%.V 0 - # # # # # @ + o . pXpXpXpXpXpXpXpXpXpXpXpXpXpX",
"pXpXpXpXpXpXpXpXpXpXpXpXpXpXpX# # # # # # # # % i b -.~.5XuXiXiXtX/.) m V ~ p.X.d q $ # # # @ + o . pXpXpXpXpXpXpXpXpXpXpXpXpXpX",
"pXpXpXpXpXpXpXpXpXpXpXpXpXpXpX# # # # # # # > p ..L.m.;.XXtXiXiXiXyXY.U 7 3 r :.8.V 9 = # # @ + o . pXpXpXpXpXpXpXpXpXpXpXpXpXpX",
"pXpXpXpXpXpXpXpXpXpXpXpXpXpXpX# # # # # # % p 2.>XrX+X^ } .XyXiXiXiXtXQ.M 5 # & H u.( 9 $ # @ @ O X pXpXpXpXpXpXpXpXpXpXpXpXpXpX",
"pXpXpXpXpXpXpXpXpXpXpXpXpXpXpX# # # # # # u  .>XiXiXuXXXX.E OXtXiXiXiXtXP.H 6 # , t u.V q # @ @ + o pXpXpXpXpXpXpXpXpXpXpXpXpXpX",
"pXpXpXpXpXpXpXpXpXpXpXpXpXpXpX# # # # $ : n J.rXiXiXiXtX`.^ :.OXtXiXiXiXtXS.v $ # , H 8.d - $ @ + O pXpXpXpXpXpXpXpXpXpXpXpXpXpX",
"pXpXpXpXpXpXpXpXpXpXpXpXpXpXpX# # # # * r ;.v.[.yXiXiXiXtXoXJ _ @XiXiXiXiX>X..- $ # & :.X.0 * @ @ + pXpXpXpXpXpXpXpXpXpXpXpXpXpX",
"pXpXpXpXpXpXpXpXpXpXpXpXpXpXpX# # # # 8 ^ [.g.^  XtXiXiXiXtX/.} o.%XtXiX8Xj.J 6.b 2 # r p.V 1 # @ @ pXpXpXpXpXpXpXpXpXpXpXpXpXpX",
"pXpXpXpXpXpXpXpXpXpXpXpXpXpXpX# # # $ a x.8X<Xw.@.'.yXiXiXiXrX)./ 1.#X1Xs.] G.6XN.S < 1 ~ %.7 # # @ pXpXpXpXpXpXpXpXpXpXpXpXpXpX",
"pXpXpXpXpXpXpXpXpXpXpXpXpXpXpX# # # * v /.iXiX4X$.[ #XyXiXiXiXtX_.G U =.k C.wXiXrXb.f 2 B 5.w * # # pXpXpXpXpXpXpXpXpXpXpXpXpXpX",
"pXpXpXpXpXpXpXpXpXpXpXpXpXpXpX# # # 3 F *XiXiXiX<Xy.Q {.tXiXiXiXrX!.U f t.8XiXiXiXeXD.C z 3.s 2 # # pXpXpXpXpXpXpXpXpXpXpXpXpXpX",
"pXpXpXpXpXpXpXpXpXpXpXpXpXpXpX# # # 8 I 2XiXiXiXyX>X%.&.OXyXiXiXiXrX!.U ~ *XyXiXiXiXwXv.Y 9.f 7 # # pXpXpXpXpXpXpXpXpXpXpXpXpXpX",
"pXpXpXpXpXpXpXpXpXpXpXpXpXpXpX# # # 0 K OXeXiXiXiXyX>X,.$.%XyXiXiXiXrXT.A 0.>XiXiXiXiXwXM.a.b 0 # # pXpXpXpXpXpXpXpXpXpXpXpXpXpX",
"pXpXpXpXpXpXpXpXpXpXpXpXpXpXpX# # # 0 n d.F.rXiXiXiXiX=X8._ +XyXiXiXiXrXR.T 2.3XuXiXiXiXqX XH 0 # # pXpXpXpXpXpXpXpXpXpXpXpXpXpX",
"pXpXpXpXpXpXpXpXpXpXpXpXpXpXpX# # # 7 g q.R M.eXiXiXiXtX$X~ @.&XuXiXiXiXrXI.) ,.<XyXiXiXiX<XL 7 # # pXpXpXpXpXpXpXpXpXpXpXpXpXpX",
"pXpXpXpXpXpXpXpXpXpXpXpXpXpXpX# # # 2 s 3.x A L.rXiXiXiX7Xq.v $.$XuXiXiXiXqXL.B i.3XiXiXiX*XF 3 # # pXpXpXpXpXpXpXpXpXpXpXpXpXpX",
"pXpXpXpXpXpXpXpXpXpXpXpXpXpXpX# # # * w 5.B 4 l V.rXiXwXV.j #.U | >XiXiXiXiXrXP.H %.6XiXiX/.v * # # pXpXpXpXpXpXpXpXpXpXpXpXpXpX",
"pXpXpXpXpXpXpXpXpXpXpXpXpXpXpX# # # # 7 %.~ 1 1 D S.8XF.' s.<XoX>.4.-XuXiXiXiXwXS.~ e.2X8Xx.a $ # # pXpXpXpXpXpXpXpXpXpXpXpXpXpX",
"pXpXpXpXpXpXpXpXpXpXpXpXpXpXpX# # # # 1 V p.r # 5 M 9.L k.8XiXtX+XO.9.=XiXiXiXiX0XA.A h.}.^ 8 # # # pXpXpXpXpXpXpXpXpXpXpXpXpXpX",
"pXpXpXpXpXpXpXpXpXpXpXpXpXpXpX# # # # * 0 X.:.& # $ ; +.,XiXiXiXuXXX[ *.5XiXiXiXiXrXB.f.-.r * # # # pXpXpXpXpXpXpXpXpXpXpXpXpXpX",
"pXpXpXpXpXpXpXpXpXpXpXpXpXpXpX# # # # $ - d 8.H , # $ M K.tXiXiXiXtXoX;.2.=XiXiXiXiX9XZ.c : $ # # # pXpXpXpXpXpXpXpXpXpXpXpXpXpX",
"pXpXpXpXpXpXpXpXpXpXpXpXpXpXpX# # # # # # q V u.t , # 7 P E.tXiXiXiXrX|.~ e.<XiXiXiX:X| y # # # # # pXpXpXpXpXpXpXpXpXpXpXpXpXpX",
"pXpXpXpXpXpXpXpXpXpXpXpXpXpXpX# # # # # # $ 9 ( u.H & # 7 Z (.tXiXiXiXyX).{ 7.6XyX>X2.p % # # # # # pXpXpXpXpXpXpXpXpXpXpXpXpXpX",
"pXpXpXpXpXpXpXpXpXpXpXpXpXpXpX# # # # # # # = 9 V 8.:.r 3 8 W ^.uXiXiXiXtX].=.H.U.X.p > # # # # # # pXpXpXpXpXpXpXpXpXpXpXpXpXpX",
"pXpXpXpXpXpXpXpXpXpXpXpXpXpXpX# # # # # # # # $ q d X.p.~ V M ` '.yXiXiXuX3XW.<.M p % # # # # # # # pXpXpXpXpXpXpXpXpXpXpXpXpXpX",
"pXpXpXpXpXpXpXpXpXpXpXpXpXpXpX# # # # # # # # # # - 0 V %.5.3.r.n.;X4X*X/.l.! w - # # # # # # # # # pXpXpXpXpXpXpXpXpXpXpXpXpXpX",
"pXpXpXpXpXpXpXpXpXpXpXpXpXpXpX# # # # # # # # # # $ * 1 7 w s j N U U F v p 7 * $ # # # # # # # # # pXpXpXpXpXpXpXpXpXpXpXpXpXpX",
"pXpXpXpXpXpXpXpXpXpXpXpXpXpXpX# # # # # # # # # # # # # # * 2 7 0 q 8 3 * $ # # # # # # # # # # # # pXpXpXpXpXpXpXpXpXpXpXpXpXpX",
"pXpXpXpXpXpXpXpXpXpXpXpXpXpXpX# # # # # # # # # # # # # # # # # # # # # # # # # # # # # # # # # # # pXpXpXpXpXpXpXpXpXpXpXpXpXpX",
"pXpXpXpXpXpXpXpXpXpXpXpXpXpXpX  # # # # # # # # # # # # # # # # # # # # # # # # # # # # # # # # # # pXpXpXpXpXpXpXpXpXpXpXpXpXpX",
"pXpXpXpXpXpXpXpXpXpXpXpXpXpXpXpXpXpXpXpXpXpXpXpXpXpXpXpXpXpXpXpXpXpXpXpXpXpXpXpXpXpXpXpXpXpXpXpXpXpXpXpXpXpXpXpXpXpXpXpXpXpXpXpX",
"pXpXpXpXpXpXpXpXpXpXpXpXpXpXpXpXpXpXpXpXpXpXpXpXpXpXpXpXpXpXpXpXpXpXpXpXpXpXpXpXpXpXpXpXpXpXpXpXpXpXpXpXpXpXpXpXpXpXpXpXpXpXpXpX",
"pXpXpXpXpXpXpXpXpXpXpXpXpXpXpXpXpXpXpXpXpXpXpXpXpXpXpXpXpXpXpXpXpXpXpXpXpXpXpXpXpXpXpXpXpXpXpXpXpXpXpXpXpXpXpXpXpXpXpXpXpXpXpXpX",
"pXpXpXpXpXpXpXpXpXpXpXpXpXpXpXpXpXpXpXpXpXpXpXpXpXpXpXpXpXpXpXpXpXpXpXpXpXpXpXpXpXpXpXpXpXpXpXpXpXpXpXpXpXpXpXpXpXpXpXpXpXpXpXpX",
"pXpXpXpXpXpXpXpXpXpXpXpXpXpXpXpXpXpXpXpXpXpXpXpXpXpXpXpXpXpXpXpXpXpXpXpXpXpXpXpXpXpXpXpXpXpXpXpXpXpXpXpXpXpXpXpXpXpXpXpXpXpXpXpX",
"pXpXpXpXpXpXpXpXpXpXpXpXpXpXpXpXpXpXpXpXpXpXpXpXpXpXpXpXpXpXpXpXpXpXpXpXpXpXpXpXpXpXpXpXpXpXpXpXpXpXpXpXpXpXpXpXpXpXpXpXpXpXpXpX",
"pXpXpXpXpXpXpXpXpXpXpXpXpXpXpXpXpXpXpXpXpXpXpXpXpXpXpXpXpXpXpXpXpXpXpXpXpXpXpXpXpXpXpXpXpXpXpXpXpXpXpXpXpXpXpXpXpXpXpXpXpXpXpXpX",
"pXpXpXpXpXpXpXpXpXpXpXpXpXpXpXpXpXpXpXpXpXpXpXpXpXpXpXpXpXpXpXpXpXpXpXpXpXpXpXpXpXpXpXpXpXpXpXpXpXpXpXpXpXpXpXpXpXpXpXpXpXpXpXpX",
"pXpXpXpXpXpXpXpXpXpXpXpXpXpXpXpXpXpXpXpXpXpXpXpXpXpXpXpXpXpXpXpXpXpXpXpXpXpXpXpXpXpXpXpXpXpXpXpXpXpXpXpXpXpXpXpXpXpXpXpXpXpXpXpX",
"pXpXpXpXpXpXpXpXpXpXpXpXpXpXpXpXpXpXpXpXpXpXpXpXpXpXpXpXpXpXpXpXpXpXpXpXpXpXpXpXpXpXpXpXpXpXpXpXpXpXpXpXpXpXpXpXpXpXpXpXpXpXpXpX",
"pXpXpXpXpXpXpXpXpXpXpXpXpXpXpXpXpXpXpXpXpXpXpXpXpXpXpXpXpXpXpXpXpXpXpXpXpXpXpXpXpXpXpXpXpXpXpXpXpXpXpXpXpXpXpXpXpXpXpXpXpXpXpXpX",
"pXpXpXpXpXpXpXpXpXpXpXpXpXpXpXpXpXpXpXpXpXpXpXpXpXpXpXpXpXpXpXpXpXpXpXpXpXpXpXpXpXpXpXpXpXpXpXpXpXpXpXpXpXpXpXpXpXpXpXpXpXpXpXpX",
"pXpXpXpXpXpXpXpXpXpXpXpXpXpXpXpXpXpXpXpXpXpXpXpXpXpXpXpXpXpXpXpXpXpXpXpXpXpXpXpXpXpXpXpXpXpXpXpXpXpXpXpXpXpXpXpXpXpXpXpXpXpXpXpX",
"pXpXpXpXpXpXpXpXpXpXpXpXpXpXpXpXpXpXpXpXpXpXpXpXpXpXpXpXpXpXpXpXpXpXpXpXpXpXpXpXpXpXpXpXpXpXpXpXpXpXpXpXpXpXpXpXpXpXpXpXpXpXpXpX",
"pXpXpXpXpXpXpXpXpXpXpXpXpXpXpXpXpXpXpXpXpXpXpXpXpXpXpXpXpXpXpXpXpXpXpXpXpXpXpXpXpXpXpXpXpXpXpXpXpXpXpXpXpXpXpXpXpXpXpXpXpXpXpXpX"
};
