/* XPM */
static char *result[] = {
/* columns rows colors chars-per-pixel */
"64 64 254 2 ",
"   c #003869",
".  c #073572",
"X  c #01416B",
"o  c #024775",
"O  c #04557E",
"+  c #2A5D7D",
"@  c #425A7D",
"#  c #0F328F",
"$  c #0034AD",
"%  c #07469B",
"&  c #005A94",
"*  c #065799",
"=  c #0B5188",
"-  c #03659A",
";  c #146895",
":  c #336B88",
">  c #387998",
",  c #2C6C98",
"<  c #055BA7",
"1  c #0C5DAB",
"2  c #2B57A2",
"3  c #0164A3",
"4  c #016CA5",
"5  c #016CAB",
"6  c #0866AA",
"7  c #1564A7",
"8  c #0173AC",
"9  c #0C74AD",
"0  c #0A77A8",
"q  c #1873AA",
"w  c #0868B6",
"e  c #0274BC",
"r  c #0478B5",
"t  c #1978B5",
"y  c #136DBA",
"u  c #257CAC",
"i  c #2777B7",
"p  c #3275B1",
"a  c #2F5B89",
"s  c #437792",
"d  c #4F6C93",
"f  c #417FB9",
"g  c #017CC5",
"h  c #0777C6",
"j  c #167CC5",
"k  c #0872CB",
"l  c #0350C2",
"z  c #0483B9",
"x  c #1D82B7",
"c  c #1E80A3",
"v  c #2787BA",
"b  c #3A85B9",
"n  c #2F8AB0",
"m  c #5B8BA9",
"M  c #4C98AB",
"N  c #4888B8",
"B  c #4492BA",
"V  c #589ABA",
"C  c #5993AB",
"Z  c #6A90B1",
"A  c #4DA3B7",
"S  c #6CAABA",
"D  c #438E9B",
"F  c #0588CA",
"G  c #1786C7",
"H  c #0693C9",
"J  c #0084D4",
"K  c #078DD6",
"L  c #188BD7",
"P  c #0597D9",
"I  c #1A99D9",
"U  c #1894C8",
"Y  c #2A89C6",
"T  c #3489CB",
"R  c #3495C6",
"E  c #2693D5",
"W  c #3499D6",
"Q  c #2B8FCD",
"!  c #04A6DC",
"~  c #19A6DA",
"^  c #00A5CF",
"/  c #38A6DA",
"(  c #2EA8D6",
")  c #1996E9",
"_  c #0892EB",
"`  c #2399ED",
"'  c #349DE5",
"]  c #2398F4",
"[  c #389FF8",
"{  c #01A9E6",
"}  c #01B4E4",
"|  c #1BB5F7",
" . c #14A9F0",
".. c #26A6EC",
"X. c #37A9E5",
"o. c #25B9E8",
"O. c #39B5E9",
"+. c #2DABFC",
"@. c #26A5F8",
"#. c #33ADFE",
"$. c #37AAF6",
"%. c #2BBBFA",
"&. c #36BBFD",
"*. c #3CBBFD",
"=. c #39B6F7",
"-. c #448BC7",
";. c #4498CA",
":. c #489AD4",
">. c #5999CD",
",. c #6999CC",
"<. c #58A7C8",
"1. c #47A7D7",
"2. c #56A8D7",
"3. c #49B2DD",
"4. c #5AB7D8",
"5. c #4BAAC6",
"6. c #65ABCA",
"7. c #77A7CC",
"8. c #69B2C7",
"9. c #6AADD6",
"0. c #67B6D8",
"q. c #78B5D7",
"w. c #7DB0CF",
"e. c #45A8E7",
"r. c #49B8E5",
"t. c #56B9E5",
"y. c #47A9FE",
"u. c #42BCFC",
"i. c #47B6F9",
"p. c #54BAFD",
"a. c #5BACE9",
"s. c #66BAE7",
"d. c #79BCE6",
"f. c #74BCF7",
"g. c #4094FC",
"h. c #1BCFF2",
"j. c #27C7FF",
"k. c #33C3FE",
"l. c #3BC4FE",
"z. c #34CBFE",
"x. c #3BCAF8",
"c. c #3AD4FC",
"v. c #2DCEF9",
"b. c #3BF1F5",
"n. c #4DC6D9",
"m. c #6BC4D6",
"M. c #49C6EA",
"N. c #58C3EB",
"B. c #44CBFF",
"V. c #48C6F9",
"C. c #52CCFE",
"Z. c #57C7F9",
"A. c #4CDCF5",
"S. c #48D6FB",
"D. c #56D6FC",
"F. c #66C5E9",
"G. c #76C7E8",
"H. c #68C9FB",
"J. c #76CAFB",
"K. c #6CD4FE",
"L. c #65D9FF",
"P. c #6DDBFE",
"I. c #61D7F8",
"U. c #7CD3F3",
"Y. c #75DDFE",
"T. c #7CDCFD",
"R. c #72D4FB",
"E. c #74D3EB",
"W. c #4DE6FD",
"Q. c #5BE5F9",
"!. c #64E3FF",
"~. c #68E7FD",
"^. c #7BE6FE",
"/. c #7AF4FC",
"(. c #89B2BB",
"). c #A1A2A2",
"_. c #8BB2C9",
"`. c #99B6C4",
"'. c #87B8D7",
"]. c #96BDDA",
"[. c #87AAD0",
"{. c #A3BBD5",
"}. c #97C4DA",
"|. c #94CDDD",
" X c #AACBD8",
".X c #BBD2DA",
"XX c #83CDEC",
"oX c #8AC9E9",
"OX c #98CBE8",
"+X c #86D4E5",
"@X c #98D5E5",
"#X c #85C8FA",
"$X c #84DEFF",
"%X c #8BDDFE",
"&X c #87D4FB",
"*X c #94D3FD",
"=X c #94DCFB",
"-X c #9AD8FA",
";X c #AACDE7",
":X c #A6D5E8",
">X c #B6D7E7",
",X c #A2DDFE",
"<X c #A7DAF7",
"1X c #B6DDF8",
"2X c #B2CBE7",
"3X c #87E6FE",
"4X c #94E4FE",
"5X c #9BE4FE",
"6X c #98E9FB",
"7X c #82F7FE",
"8X c #99F3FD",
"9X c #B4E4EE",
"0X c #A3E5FE",
"qX c #ACE3FD",
"wX c #A3EBFF",
"eX c #ACEAFE",
"rX c #A7E4F3",
"tX c #B4E5FE",
"yX c #B4EAFE",
"uX c #BBEBFE",
"iX c #B9E4F4",
"pX c #A8F5FE",
"aX c #BDF3FE",
"sX c #B7F9FF",
"dX c #A4E4ED",
"fX c #CED4DB",
"gX c #C5DAEC",
"hX c #CAE4EC",
"jX c #C3ECFD",
"kX c #CCEDFD",
"lX c #C7E4F5",
"zX c #D2EFFE",
"xX c #D7EAF5",
"cX c #C4F2FE",
"vX c #CCF3FE",
"bX c #CBFAFF",
"nX c #C6F6FB",
"mX c #D3F4FE",
"MX c #DCF4FE",
"NX c #D4FBFE",
"BX c #DCFCFE",
"VX c #D9F1F4",
"CX c #E3EEF6",
"ZX c #E3F5FE",
"AX c #EBF6FD",
"SX c #E4FDFE",
"DX c #EBFCFE",
"FX c #E9F2F5",
"GX c #F4F4F4",
"HX c #F3FDFE",
"JX c #FCFEFF",
"KX c #F1F6FA",
"LX c #E4E7E8",
"PX c None",
/* pixels */
"PXPXPXPXPXPXPXPXPXPXPXPXPXPXPXPXPXPXPXPXPXPXPXPXPXPXPXPXPXPXPXPXPXPXPXPXPXPXPXPXPXPXPXPXPXPXPXPXPXPXPXPXPXPXPXPXPXPXPXPXPXPXPXPX",
"PXPXPXPXPXPXPXPXPXPXPXPXPXPXPXPXPXPXPXPXPXPXPXPXPXPXPXPXPXPXPXPXPXPXPXPXPXPXPXPXPXPXPXPXPXPXPXPXPXPXPXPXPXPXPXPXPXPXPXPXPXPXPXPX",
"PXPXPXPXPXPXPXPXPXPXPXPXPXPXPXPXPXPXPXPXPXPXPXPXPXPXPXPXPXHXJXKXHXJXPXPXPXPXPXPXPXPXPXPXPXPXPXPXPXPXPXPXPXPXPXPXPXPXPXPXPXPXPXPX",
"PXPXPXPXPXPXPXPXPXPXPXPXPXPXPXPXPXPXPXPXPXPXPXPXPXPXPXJXJXMXmXmXmXZXJXJXJXPXPXPXPXPXPXPXPXPXPXPXPXPXPXPXPXPXPXPXPXPXPXPXPXPXPXPX",
"PXPXPXPXPXPXPXPXPXPXPXPXPXPXPXPXPXPXPXPXPXPXPXPXPXJXJXBXmXMXMXMXMXMXMXmXJXJXPXPXPXPXPXPXPXPXPXPXPXPXPXPXPXPXPXPXPXPXPXPXPXPXPXPX",
"PXPXPXPXPXPXPXPXPXPXPXPXPXPXPXPXPXPXPXPXPXPXPXGXJXDXBXBXZXMXBXZXBXZXZXZXZXBXJXJXHXPXPXPXPXPXPXPXPXPXPXPXPXPXPXPXPXPXPXPXPXPXPXPX",
"PXPXPXPXPXPXPXPXPXPXPXPXPXPXPXPXPXPXPXPXPXPXJXDXSXSXSXSXSXZXSXZXZXDXDXDXSXZXDXDXHXJXPXPXPXPXPXPXPXPXPXPXPXPXPXPXPXPXPXPXPXPXPXPX",
"PXPXPXPXPXPXPXPXPXPXPXPXPXPXPXPXPXPXPXPXJXJXJXHXHXDXDXSXSXSXSXjX:.1.0.OXxXKXDXDXHXHXJXJXPXPXPXPXPXPXPXPXPXPXPXPXPXPXPXPXPXPXPXPX",
"PXPXPXPXPXPXPXPXPXPXPXPXPXPXPXPXPXPXJXJXJXJXHXHXDXDXDXSXSXSXZXqXf.g G G t -.oXhXDXHXHXJXJXJXPXPXPXPXPXPXPXPXPXPXPXPXPXPXPXPXPXPX",
"PXPXPXPXPXPXPXPXPXPXPXPXPXPXPXPXPXJXJXJXJXJXDXJXHXHXDXDXSXSXcX*X&X2.G h h k w 9 v OXCXJXJXJXJXPXPXPXPXPXPXPXPXPXPXPXPXPXPXPXPXPX",
"PXPXPXPXPXPXPXPXPXPXPXPXPXPXPXHXJXJXJXJXDXxXJXJXHXHXHXDXDXDX0X&X&X9.w +X9.>.t 6 6 6 5 [.GXJXJXJXJXPXPXPXPXPXPXPXPXPXPXPXPXPXPXPX",
"PXPXPXPXPXPXPXPXPXPXPXPXPXJXJXJXJXJXHXHXlXJXJXJXJXJXHXHXDXvX&X#X#Xl K g bX1 $ # >.7 & 6 9  XJXJXJXJXJXPXPXPXPXPXPXPXPXPXPXPXPXPX",
"PXPXPXPXPXPXPXPXPXPXPXJXJXJXJXJXJXMXBX1XJXJXJXJXJXJXJXJXJX*XJ.H.>.J h.sXSX}.+XpX+X@Xm p < 3 0 CXJXJXJXJXJXPXPXPXPXPXPXPXPXPXPXPX",
"PXPXPXPXPXPXPXPXPXHXJXJXJXJXJXAXzXMX1XlXJXJXJXJXJXJXJXJXZXJ.H.#Xi pXE.~.VXQ.o.F 9 n.< S 9.7 6 9 }.JXJXJXJXJXJXPXPXPXPXPXPXPXPXPX",
"PXPXPXPXPXPXPXGXJXJXJXJXJXJXMXjXmXiX<XJXJXJXJXJXJXJXJXJX#XH.p.+XsXV j / F G 1 4.U t <.Y q 0.B 6 t w.JXJXJXJXHXJXGXPXPXPXPXPXPXPX",
"PXPXPXPXPXPXJXSXSXJXJXJXJXMX1XkX:XoXgXJXJXJXJXJXJXJXJXKXH.p.XX9X2 * < 6 r r r u 0.z x , z 9 0.N 6 t ].JXJXJXHXZXKXJX).PXPXPXPXPX",
"PXPXPXPXPXDXmXNXSXHXJXJXAX,XuX:X@XG.KXJXJXJXJXJXJXJXKX-Xp.i.1.1.2.:.:.;.;.b p <., 7 w < _.r f 2 p q t xXJXJXHXDXMXZXJXPXPXPXPXPX",
"PXPXPXPXPXvXcXNXSXHXJXJX*X1X}.:Xs.q.JXJXJXJXJXJXHXKXZXH.i.G U Y R R R R Y Y Y Y Q T v 7 % G.3 9.* >.y i JXHXDXZXMXMXDXPXPXPXPXPX",
"PXPXPXPXJXyXcXNXDXHXJX1X*X>X9Xw.2.>XJXJXJXJXHXAXZXZXqXf.G R ;.<.8.}.OX;X}.'.2.;.T E E L / C t N G.* w.i '.JXHXSXMXzXAXPXPXPXPXPX",
"PXPXPXPXJXyXbXBXSXDXAX-XtX>Xc 2.2.FXJXJXJXHXMXzXjXuXd.q.-X6XpXeXuXcXmXBXSXZXZXDXAXMX'.X.....X.# 8.k # j b AXHXSXBXmXZXPXPXPXPXPX",
"PXPXPXPXJXcXNXBXSXDX0X,XS bXV W 2.JXJXJXAXmXuXeX5X5X4X3XY.~.^.^.4XwXuXcXmXMXZXZXZXDXDXHXlXy.i.u.t.9XdX_.i 7.DXSXBXMXZXPXPXPXPXPX",
"PXPXPXPXJXnXBXBXSXVX=XeXfXNX2.G q.JXJXAXzXuX4X$X~.!.D.D.S.c.c.S.D.~.^.4XwXuXcXmXMXZXDXAXKXHX1XJ.H.J.6.F N b VXSXBXmXMXPXPXPXPXPX",
"PXPXPXPXJXNXBXSXSX0X4X@Xq JX2.G w.JXAXMXjX=XT.D.W.c.c.v.v.j.z.l.B.C.S.D.Y.$X5XeXjXmXZXZXDXKXHXZX*X&X*Xu `.f ;XBXBXmXMXPXPXPXPXPX",
"PXPXPXPXJXNXVXSXMX3X$X@ ^ GX1.g '.KXZXkXqX$XL.S.v.v.h.j.j.v.l.v.k.k.l.l.u.C.L.T.4XyXvXZXAXKXAXAXZX-X*X:XZ f 7.NXNXmXMXPXPXPXPXPX",
"PXPXPXPXGXBXBXDXnX~.3X(.n.HX;.e q.ZXMXjX5XY.D.z.v.j.j.%.*.*.k.l.l.l.*.&.&.u.C.C.K.%XtXkXMXAXDXAXKXAX,X,Xm ].,.xXNXmXzXPXPXPXPXPX",
"PXPXPXPXGXBXVXSXpX~./.s z SXB 8 9.MXzXjX5XP.S.k.j.%.%.y.y.k.l.B.u.u.*.*.*.#.y.i.Z.K.%XtXzXZXAXKXKXAXCXqXuX`.,.1XNXmXMXPXPXPXPXPX",
"PXPXPXPXGXBXSXDX7X~.S dXz 9X6.4 2.ZXMXuX4XL.B.k.&.#.#.y.i.*.B.x.u.i.$.=.i.$.=.i.a.Z.E.=XuXzXAXAXZXAXCXMXjX>X[.1XBXmXzXPXPXPXPXPX",
"PXPXPXPXGXSXBXSX!.Q.S  X8 @XS - p AXzXjX4XL.B.k.#.g.[ #.&.&.l.O.O.O.X.O.$.e.X.e.e.e.H.&X,XjXZXZXKXKXAXxXmXMX].2XmXbXkXPXPXPXPXPX",
"PXPXPXPXGXSXSXBXL.Q.A n.x A (.; ; VXMXjX4XL.B.%.@.@.#.[ *.=.O.O.e.X.' ' e.e./ :.e.e.s.J.-XiXzXZXAXKXHXAXAXZX>X2XvXzXkXPXPXPXPXPX",
"PXPXPXPXGXSXSXSXW.D.D bXr n hX, O (.MXkX5XK.B.%.@.] ] ] =.=...X.O.W W W W :.:.2.:.2.s.#X=XqXlXzXZXAXKXAXAXAXZX2XvXkXkXPXPXPXPXPX",
"PXPXPXPXGXSXDXVXC.V.M v 8 z VXm o : ZXvXwXP.V.%.@.] ] @.O.' X.X.X./ ' T T :.:.:.:.a.s.XX-X<XlXmXZXAXAXKXCXZXHXgXvXmXkXPXPXPXPXPX",
"PXPXPXPXGXSXSXSXu.*.V SX3.U dX(.o o xXmXeXT.C.&.@.] ] ] =.' ' X./ W W T i :.2.-.>.9.G.@X<X;.jXzXMXZXAXKXAXAXDXhXkXmXkXJXPXPXPXPX",
"PXPXPXPXGXFXSXSX+.@.M C HXr A  Xs X s MXuX%XD.u.#.+.+.$.=.u.N.Z.N.M.r.e.1.1.3.2.2.F.XXOX*XG d.mXMXZXFXKXHXAXZXCXkXmXkXHXPXPXPXPX",
"PXPXPXPXGXSXSXDX+.] 4.0 +XV m.NX:   o VXuX5XK.V.#.+.+.&.` i.C.D.D.Z.t.2.3.3.1.2.s.E.&X<Xp.E g 1XZXZXAXHXHXKXAXAXvXmXjXJXPXPXPXPX",
"PXPXPXPXGXSXSXDXa.L e.0 D iXc nX. s X = cX5XT.Z.*.&.+.) ` M.S.W.I.Z.N.t.1.T -.a.F.U.=XrX+._ h F MXAXKXHXHXKXDXAXMXmXcXNXPXPXPXPX",
"PXPXPXPXGXSXSXSXd.E P & - sXq :XS s   X }.eX=XR.p.y.=.) ` ..c.W.D.C.M.r.t.T :.4.E.&X-X5X ._ h g 1.JXHXHXHXJXHXDXBXmXkX8XPXPXPXPX",
"PXPXPXPXGXBXSXSX<XY L : 7XNXq B HXhXA X O rXwX$XK.p.[ ` ....V.W.D.D.V.1.R W 1.t.Y.3XrXp. ._ j g J s.HXJXJXJXJXDXZXmXjX3XPXPXPXPX",
"PXPXPXPXGXSXSXSXxXj L 4.7XbXm.x m.DX@Xo X O rX6X$XH.=.@.) o.o.A.Q.D.M.M.W / r.F.U.6XwX@. .q.d G F K lXJXHXJXHXKXSXvXuX3XPXPXPXPX",
"PXPXPXPXGXSXSXSXDX-.j  ./.sXNXx 0 8XBX5.X X : 6X6XY.Z.=.O.o.v.A.W.A.M.( / 3.F.$X4XeXJ.|  .# < N g K I HXJXJXJXHXDXvXuX&XPXPXPXPX",
"PXPXPXPXGXSXSXDXDXOXk k C sXpX* o + (.S a   X > rX4XP.Z.x.x.x.c.A.A.A.O.r.N.U.4XeXeX*.| q.k g 7 :.K P e.JXJXJXKXHXmXuX*XPXPXPXPX",
"PXPXPXPXGXBXDXDXDXxXy k 8.A > n R 3.G 4 4 - = ; > rX3XK.C.S.W.A.A.A.M.M.N.XX6XtXuXR.k.v.# g { J q E P ) lXJXJXHXHXMXjX#XPXPXPXPX",
"PXPXPXPXGXSXSXSXDXSXw 6 7 4 3 6 8 4 8 4 4 0 c 0 x V 6X3X~.!.Q.!.~.~.P.T.%X0XiXnXqXV.%.Z x.J /.J j T P P I KXJXJXKXBXlX#XPXPXPXPX",
"PXPXPXPXGXSXDXDXDXHX[.7 3 5 3 4 4 0 x n B q.@X9XaXsXpX4X3X^./././.3X6X6XeXaXvXjXC.x.XXR Q.J 3.k 8Xh 2.P _ a.JXHXHXZXcX#XPXPXPXPX",
"PXPXPXPXJXSXDXDXHXDXCX4 8 N _.>XVXSXBXNXbXbXbXnXnXcXpXwX6X8X8X8XpXeXpXsXnXMXMXK.l.D.% M.b.O.h.J k k :     Z JXJXHXBXmXf.PXPXPXPX",
"PXPXPXPXJXDXDXHXHXHXHXHXHXHXHXDXDXBXBXNXbXbXbXbXnXbXcXsXpXpXpXsXsXnXbXMXBXMXK.V.I.i ! } 8 w B !.j b . o > JXJXJXZXMXkX#XPXPXPXPX",
"PXPXPXPXPXJXHXDXHXHXJXJXHXHXHXDXDXSXBXNXNXbXbXbXbXbXbXbXcXnXcXnXmXBXZXDXmXK.S.T.T ! } } P /.o.6 t = & - JXJXHXDXZXmX*XPXPXPXPXPX",
"PXPXPXPXPXPXPXJXHXHXJXJXJXJXHXHXDXSXBXNXNXNXNXbXbXmXbXNXmXNXBXBXSXZXDXyXK.D.&XQ <X}.{ } { U Y q & & 0 GXHXHXHXDXcXqXPXPXPXPXPXPX",
"PXPXPXPXPXPXPXPXJXJXJXHXJXJXJXJXHXDXSXBXBXNXNXNXNXNXNXBXBXBXSXZXDXmX0XT.D.XXU 4XX.{ 8XP P E q & - c FXHXJXHXZXyXPXPXPXPXPXPXPXPX",
"PXPXPXPXPXPXPXPXPX).JXJXJXJXJXJXJXJXDXBXBXBXBXNXBXBXBXZXSXZXSXmXeX4X3X3XF.P / E.j.o.6.^ G ; & - B GXJXHXHXmXZ PXPXPXPXPXPXPXPXPX",
"PXPXPXPXPXPXPXPXPXPXPXJXJXJXJXJXHXZXAXDXSXSXBXBXBXBXBXNXnXuXeXwX5X4X=X0.h.} ! T 9Xr.K R = & - <.HXJXJXKXaXPXPXPXPXPXPXPXPXPXPXPX",
"PXPXPXPXPXPXPXPXPXPXPXPXLXJXDXDXHXJXHX>XVXDXZXBXNXmXbXaXuXyXuXjXiX2.:XH M.N.} ^ e n R & & 0  XJXHXJXDX,XPXPXPXPXPXPXPXPXPXPXPXPX",
"PXPXPXPXPXPXPXPXPXPXPXPXPXPXJXDXDXHXJXJXxX>X;XlXgX{.fX X_.B / 5Xx.o.eXVX6.0.z 3.R 3 4 - x DXHXJXJXnXPXPXPXPXPXPXPXPXPXPXPXPXPXPX",
"PXPXPXPXPXPXPXPXPXPXPXPXPXPXPXPXJXHXJXJXHXHXlX:XOXd.1X1X_.;.~ 4.~ ( Y q.<X;.9 r 5 r n hXHXHXJXNXbXPXPXPXPXPXPXPXPXPXPXPXPXPXPXPX",
"PXPXPXPXPXPXPXPXPXPXPXPXPXPXPXPXPXJXHXJXHXJXDXSXmX:XOXoXG.t.r.r.( ( o.~ ^ H H z 6.lXBXSXJXDXbXPXPXPXPXPXPXPXPXPXPXPXPXPXPXPXPXPX",
"PXPXPXPXPXPXPXPXPXPXPXPXPXPXPXPXPXPXPXJXJXJXHXSXSXNXvXjX<XOXoXXXG.F.F.4.s.+XiXbXNXBXSXSXNXPXPXPXPXPXPXPXPXPXPXPXPXPXPXPXPXPXPXPX",
"PXPXPXPXPXPXPXPXPXPXPXPXPXPXPXPXPXPXPXPXJXJXJXHXSXNXNXmXmXmXbXvXvXkXvXnXmXmXbXmXBXBXBXNXPXPXPXPXPXPXPXPXPXPXPXPXPXPXPXPXPXPXPXPX",
"PXPXPXPXPXPXPXPXPXPXPXPXPXPXPXPXPXPXPXPXPXPXJXJXDXNXmXvXnXmXmXbXmXmXmXvXvXcXmXmXNXNXPXPXPXPXPXPXPXPXPXPXPXPXPXPXPXPXPXPXPXPXPXPX",
"PXPXPXPXPXPXPXPXPXPXPXPXPXPXPXPXPXPXPXPXPXPXPXfXHXBXbXbXcXcXjXvXnXvXcXcXjXcXjXNXfXPXPXPXPXPXPXPXPXPXPXPXPXPXPXPXPXPXPXPXPXPXPXPX",
"PXPXPXPXPXPXPXPXPXPXPXPXPXPXPXPXPXPXPXPXPXPXPXPXPXGXmXcXcXcXcXjXvXcXcXuXyXcXVXPXPXPXPXPXPXPXPXPXPXPXPXPXPXPXPXPXPXPXPXPXPXPXPXPX",
"PXPXPXPXPXPXPXPXPXPXPXPXPXPXPXPXPXPXPXPXPXPXPXPXPXPXPXJXuXjXjXjXkXkXuXuXHXPXPXPXPXPXPXPXPXPXPXPXPXPXPXPXPXPXPXPXPXPXPXPXPXPXPXPX",
"PXPXPXPXPXPXPXPXPXPXPXPXPXPXPXPXPXPXPXPXPXPXPXPXPXPXPXPXJXHXtXuXuXvXJXPXPXPXPXPXPXPXPXPXPXPXPXPXPXPXPXPXPXPXPXPXPXPXPXPXPXPXPXPX",
"PXPXPXPXPXPXPXPXPXPXPXPXPXPXPXPXPXPXPXPXPXPXPXPXPXPXPXPXPXPXJXJXJXPXPXPXPXPXPXPXPXPXPXPXPXPXPXPXPXPXPXPXPXPXPXPXPXPXPXPXPXPXPXPX",
"PXPXPXPXPXPXPXPXPXPXPXPXPXPXPXPXPXPXPXPXPXPXPXPXPXPXPXPXPXPXPXPXPXPXPXPXPXPXPXPXPXPXPXPXPXPXPXPXPXPXPXPXPXPXPXPXPXPXPXPXPXPXPXPX",
"PXPXPXPXPXPXPXPXPXPXPXPXPXPXPXPXPXPXPXPXPXPXPXPXPXPXPXPXPXPXPXPXPXPXPXPXPXPXPXPXPXPXPXPXPXPXPXPXPXPXPXPXPXPXPXPXPXPXPXPXPXPXPXPX"
};
