/* XPM */
static char *result[] = {
/* columns rows colors chars-per-pixel */
"64 64 64 1 ",
"  c black",
". c #010000",
"X c #000001",
"o c #010001",
"O c #020000",
"+ c #030000",
"@ c #000102",
"# c #010102",
"$ c #000003",
"% c #000103",
"& c #040001",
"* c #000004",
"= c #000104",
"- c #000207",
"; c #FBD607",
": c #FCD605",
"> c #FAD70A",
", c #FD7FAD",
"< c #FE7EAD",
"1 c #FC7FAF",
"2 c #FB7FB0",
"3 c #FC7FB0",
"4 c #03A7F6",
"5 c #03A8F6",
"6 c #03A6F9",
"7 c #03A6FA",
"8 c #03A6FB",
"9 c #04A6F8",
"0 c #05A6F8",
"q c #04A6F9",
"w c #00A7FD",
"e c #02A7FC",
"r c #01A6FE",
"t c #FEB785",
"y c #FEB786",
"u c #FEB883",
"i c #FCB985",
"p c #FEB884",
"a c #FCB986",
"s c #FCB987",
"d c #FEB789",
"f c #FCB889",
"g c #F781AF",
"h c #F981AD",
"j c #FB80AD",
"k c #F981AF",
"l c #FB80AF",
"z c #F781B0",
"x c #F881B0",
"c c #F981B0",
"v c #FB80B0",
"b c #C0C0C0",
"n c #F7FFFF",
"m c #FAFFFF",
"M c #FFFFFD",
"N c #FFFDFE",
"B c #FFFCFF",
"V c #FFFDFF",
"C c #FCFFFF",
"Z c #FEFEFE",
"A c #FFFEFE",
"S c #FFFEFF",
"D c #FEFFFF",
"F c white",
/* pixels */
"FFFFFFFFFFFFFFFFFFFFFFFFFFFFFFFFFFFFFFFFFFFFFFFFFFFFFFFFFFFFFFFF",
"FFFFFFFFFFFFFFFFFFFFFFFFFFFFFFFFFFFFFFFFFFFFFFFFFFFFFFFFFFFFFFFF",
"FFFFFFFFFFFFFFFFFFFFFFFFFFFFFFFFFFFFFFFFFFFFFFFFFFFFFFFFFFFFFFFF",
"FFFFFFFFFFFFFFFFFFFFFFFFFFFFFFFFFFFFFFFFFFFFFFFFFFFFFFFFFFFFFFFF",
"FFFFFFFFFFFFFFFFFFFFFFFFFFFFFFFFFFFFFFFFFFFFFFFFFFFFFFFFFFFFFFFF",
"FFFFFFFFFFFFFFFFFFFFFFFFFFFFFFFFFFFFFFFFFFFFFFFFFFFFFFFFFFFFFFFF",
"FFFFFFFFFFFFFFFFFFFFFFFF          FFFFFFFFFFFFFFFFFFFFFFFFFFFFFF",
"FFFFFFFFFFFFFFFFFFFFFFFF          FFFFFFFFFFFFFFFFFFFFFFFFFFFFFF",
"FFFFFFFFFFFFFFFFFFFF    bbFFFFFFbb    FFFFFFFFFFFFFFFFFFFFFFFFFF",
"FFFFFFFFFFFFFFFFFFFF    bbFFFFFFbb    FFFFFFFFFFFFFFFFFFFFFFFFFF",
"FFFFFFFFFFFFFFFFFF  bbFFFFFFFFFFFFFFbb  FFFFFFFFFFFFFFFFFFFFFFFF",
"FFFFFFFFFFFFFFFFFF  bbFFFFFFFFFFFFFFbb  FFFFFFFFFFFFFFFFFFFFFFFF",
"FFFFFFFFFFFFFFFF  bbFFFFFFDDDDFFFFFFFFbb  FFFFFFFFFFFFFFFFFFFFFF",
"FFFFFFFFFFFFFFFF  bbFFZZFFNNNNZZFFZZFFbb  FFFFFFFFFFFFFFFFFFFFFF",
"FFFFFFFFFFFFFFFF  FFDVccOOz322vxOOccVSFF  FFFFFFFFFFFFFFFFFFFFFF",
"FFFFFFFFFFFFFFFF  FFVBjjOOh<,,,jOOjjVVFF  FFFFFFFFFFFFFFFFFFFFFF",
"FFFFFFFFFFFFFFFF  DNxjdfOOfyttyfOOfdjxZF  FFFFFFFFFFFFFFFFFFFFFF",
"FFFFFFFFFFFFFFFF  DNv,tiOOauuuuaOOit,vZF  FFFFFFFFFFFFFFFFFFFFFF",
"FFFFFFFFFFFFFFFF  DN2,ysOOiuppuiOOsy,2ZF  FFFFFFFFFFFFFFFFFFFFFF",
"FFFFFFFFFFFFFFFF  DN2,ysOOiuppuiOOsy,2ZF  FFFFFFFFFFFFFFFFFFFFFF",
"FFFFFFFFFFFFFFFF  DNv,tiOOauuuuaOOit,vZF  FFFFFFFFFFFFFFFFFFFFFF",
"FFFFFFFFFFFFFFFF  DNxjdfOOfyttyfOOfdjxZF  FFFFFFFFFFFFFFFFFFFFFF",
"FFFFFFFFFFFFFFFF  bbVBjjOOh<,,,jOOjjVVbb  FFFFFFFFFFFFFFFFFFFFFF",
"FFFFFFFFFFFFFFFF  bbDVccOOz322vxOOccVSbb  FFFFFFFFFFFFFFFFFFFFFF",
"FFFFFFFFFFFFFFFFFF  bbZZFFNNNNZZFFZZbb  FFFFFFFFFFFFFFFFFFFFFFFF",
"FFFFFFFFFFFFFFFFFF  bbFFFFDDDDFFFFFFbb  FFFFFFFFFFFFFFFFFFFFFFFF",
"FFFFFFFFFFFFFFFFFFFF    ooXXXXXXXX    FFFFFFFFFFFFFFFFFFFFFFFFFF",
"FFFFFFFFFFFFFFFFFFFF    **========    FFFFFFFFFFFFFFFFFFFFFFFFFF",
"FFFFFFFFFFFFFFFFFF  FFo%06888888q0%oFF  FFFFFFFFFFFFFFFFFFFFFFFF",
"FFFFFFFFFFFFFFFFFF  FF%-67eeeeee7q-%FF  FFFFFFFFFFFFFFFFFFFFFFFF",
"FFFFFFFFFFFFFFFF  FFo*06wwwwwwwwwwq0=XFF  FFFFFFFFFFFFFFFFFFFFFF",
"FFFFFFFFFFFFFFFF  FFo*67wwwwwwwwww7q=XFF  FFFFFFFFFFFFFFFFFFFFFF",
"FFFFFFFFFFFFFFFF   .o*67eerrrrrree7q=X    FFFFFFFFFFFFFFFFFFFFFF",
"FFFFFFFFFFFFFFFF&++&o*068899999988q0=X&++&FFFFFFFFFFFFFFFFFFFFFF",
"FFFFFFFFFFFFFF +g1lk+ $$=#>;::;>@*$$ +g1lk+ FFFFFFFFFFFFFFFFFFFF",
"FFFFFFFFFFFFFF +g1lk+ $$=#>;::;>@*$$ +g1lk+ FFFFFFFFFFFFFFFFFFFF",
"FFFFFFFFFFFFFFFF&++&o*54889999998845=X&++&FFFFFFFFFFFFFFFFFFFFFF",
"FFFFFFFFFFFFFFFF   .o*54eerrrrrree45=X    FFFFFFFFFFFFFFFFFFFFFF",
"FFFFFFFFFFFFFFFFFFFF  Cn67eeeeee7qnC  FFFFFFFFFFFFFFFFFFFFFFFFFF",
"FFFFFFFFFFFFFFFFFFFF  AC06888888q0CS  FFFFFFFFFFFFFFFFFFFFFFFFFF",
"FFFFFFFFFFFFFFFFFFFF  FFmm======mmFF  FFFFFFFFFFFFFFFFFFFFFFFFFF",
"FFFFFFFFFFFFFFFFFFFF  FFMMXXXXXXSSFF  FFFFFFFFFFFFFFFFFFFFFFFFFF",
"FFFFFFFFFFFFFFFFFFFF                  FFFFFFFFFFFFFFFFFFFFFFFFFF",
"FFFFFFFFFFFFFFFFFFFF&++++&      &++++&FFFFFFFFFFFFFFFFFFFFFFFFFF",
"FFFFFFFFFFFFFFFF   +g1lllk+    +g1lllk+   FFFFFFFFFFFFFFFFFFFFFF",
"FFFFFFFFFFFFFFFF   +g1lllk+    +g1lllk+   FFFFFFFFFFFFFFFFFFFFFF",
"FFFFFFFFFFFFFF      &++++&      &++++&      FFFFFFFFFFFFFFFFFFFF",
"FFFFFFFFFFFFFF                              FFFFFFFFFFFFFFFFFFFF",
"FFFFFFFFFFFFFFFF                          FFFFFFFFFFFFFFFFFFFFFF",
"FFFFFFFFFFFFFFFF                          FFFFFFFFFFFFFFFFFFFFFF",
"FFFFFFFFFFFFFFFFFFFFFFFFFFFFFFFFFFFFFFFFFFFFFFFFFFFFFFFFFFFFFFFF",
"FFFFFFFFFFFFFFFFFFFFFFFFFFFFFFFFFFFFFFFFFFFFFFFFFFFFFFFFFFFFFFFF",
"FFFFFFFFFFFFFFFFFFFFFFFFFFFFFFFFFFFFFFFFFFFFFFFFFFFFFFFFFFFFFFFF",
"FFFFFFFFFFFFFFFFFFFFFFFFFFFFFFFFFFFFFFFFFFFFFFFFFFFFFFFFFFFFFFFF",
"FFFFFFFFFFFFFFFFFFFFFFFFFFFFFFFFFFFFFFFFFFFFFFFFFFFFFFFFFFFFFFFF",
"FFFFFFFFFFFFFFFFFFFFFFFFFFFFFFFFFFFFFFFFFFFFFFFFFFFFFFFFFFFFFFFF",
"FFFFFFFFFFFFFFFFFFFFFFFFFFFFFFFFFFFFFFFFFFFFFFFFFFFFFFFFFFFFFFFF",
"FFFFFFFFFFFFFFFFFFFFFFFFFFFFFFFFFFFFFFFFFFFFFFFFFFFFFFFFFFFFFFFF",
"FFFFFFFFFFFFFFFFFFFFFFFFFFFFFFFFFFFFFFFFFFFFFFFFFFFFFFFFFFFFFFFF",
"FFFFFFFFFFFFFFFFFFFFFFFFFFFFFFFFFFFFFFFFFFFFFFFFFFFFFFFFFFFFFFFF",
"FFFFFFFFFFFFFFFFFFFFFFFFFFFFFFFFFFFFFFFFFFFFFFFFFFFFFFFFFFFFFFFF",
"FFFFFFFFFFFFFFFFFFFFFFFFFFFFFFFFFFFFFFFFFFFFFFFFFFFFFFFFFFFFFFFF",
"FFFFFFFFFFFFFFFFFFFFFFFFFFFFFFFFFFFFFFFFFFFFFFFFFFFFFFFFFFFFFFFF",
"FFFFFFFFFFFFFFFFFFFFFFFFFFFFFFFFFFFFFFFFFFFFFFFFFFFFFFFFFFFFFFFF"
};
