/* XPM */
static char *_0706_d938e03835a5dd827f139ef397fac38f5b7ea99916474fb9080d9a74659964af[] = {
/* columns rows colors chars-per-pixel */
"65 65 157 2 ",
"   c #1F1B2A",
".  c #211D25",
"X  c #231E2B",
"o  c #291E2C",
"O  c #221F31",
"+  c #2C1F31",
"@  c #1E202F",
"#  c #222025",
"$  c #25222D",
"%  c #2A232D",
"&  c #2B292F",
"*  c #31272F",
"=  c #242231",
"-  c #2B2532",
";  c #2D2A33",
":  c #2D2638",
">  c #2D2C39",
",  c #312633",
"<  c #312C35",
"1  c #3A2F35",
"2  c #342D3B",
"3  c #3B2D3B",
"4  c #2E3235",
"5  c #2E3138",
"6  c #343036",
"7  c #35323B",
"8  c #3A343D",
"9  c #36393E",
"0  c #3C393E",
"q  c #40373C",
"w  c #413A3E",
"e  c #363442",
"r  c #3B3542",
"t  c #363940",
"y  c #3D3A43",
"u  c #3B3748",
"i  c #3D3A48",
"p  c #403642",
"a  c #423C44",
"s  c #493F46",
"d  c #433D4A",
"f  c #483C4A",
"g  c #354646",
"h  c #3B4344",
"j  c #344846",
"k  c #384847",
"l  c #3A454A",
"z  c #454246",
"x  c #484547",
"c  c #45424A",
"v  c #4A454C",
"b  c #47484A",
"n  c #4C494D",
"m  c #51474F",
"M  c #514C4E",
"N  c #474451",
"B  c #4B4652",
"V  c #464950",
"C  c #4D4A53",
"Z  c #4E4D5B",
"A  c #514554",
"S  c #524C54",
"D  c #534D5A",
"F  c #545254",
"G  c #595456",
"H  c #595A56",
"J  c #55535A",
"K  c #5A555C",
"L  c #5C5A5D",
"P  c #60575C",
"I  c #615D5E",
"U  c #5B605C",
"Y  c #61605E",
"T  c #565261",
"R  c #5B5562",
"E  c #5D5B62",
"W  c #5E5B6A",
"Q  c #625764",
"!  c #625D64",
"~  c #695E66",
"^  c #635D6A",
"/  c #6A5D6F",
"(  c #5D6461",
")  c #5E6168",
"_  c #646265",
"`  c #696566",
"'  c #666967",
"]  c #696967",
"[  c #65636B",
"{  c #6B656B",
"}  c #676B69",
"|  c #6D6A6C",
" . c #70666E",
".. c #716C6E",
"X. c #6B716D",
"o. c #74726E",
"O. c #78706E",
"+. c #666471",
"@. c #6B6672",
"#. c #666972",
"$. c #6D6B72",
"%. c #6E6A79",
"&. c #706576",
"*. c #726D73",
"=. c #796F76",
"-. c #73677D",
";. c #736D79",
":. c #7A6F7D",
">. c #6F7374",
",. c #757374",
"<. c #797575",
"1. c #767877",
"2. c #7A7876",
"3. c #76747A",
"4. c #7A757B",
"5. c #77787B",
"6. c #7B797C",
"7. c #81767D",
"8. c #807C7D",
"9. c #82817F",
"0. c #767380",
"q. c #7C7682",
"w. c #7D7B82",
"e. c #7D7688",
"r. c #7E7988",
"t. c #817581",
"y. c #827D84",
"u. c #897F87",
"i. c #837D89",
"p. c #897F8A",
"a. c #848185",
"s. c #898484",
"d. c #8A8987",
"f. c #85828B",
"g. c #8A848C",
"h. c #87888C",
"j. c #8C898D",
"k. c #918B8E",
"l. c #868391",
"z. c #8B8592",
"x. c #878A93",
"c. c #8D8A93",
"v. c #8E8C99",
"b. c #918C94",
"n. c #928D9A",
"m. c #8F919E",
"M. c #929197",
"N. c #989296",
"B. c #95919B",
"V. c #9A939D",
"C. c #9591A0",
"Z. c #9994A2",
"A. c #9598A1",
"S. c #9C9AA4",
"D. c #989FA9",
"F. c #A29FAA",
"G. c #A2A1AA",
/* pixels */
"n.n.$.2 3.S.M.x.M.v.h.M.v.q.3 +.D.B.v.m.c.j.c.b.v.i.i T m.D.c.v.x.V.y.J V z.G.x.c.b.v.b.b.z.W u l.D.c.x.h.k.V.j.n.b.0.O e.F.v.v.b.",
":.q.t.a S.a.6.5.%.6.w.,.3.f.A n.f.0.3.5.6.1.2.1.3.l.^ 0.c.0.,.5.q.;.y.[ [ b.w.3.q.*.3.6.:.f.:.S A.r.5.5.4.2...t.0.t.l.a F.i.>.,.,.",
",.7.;.z d.X.,.1.6.,.2.,.,.6.a 3.6.3.*.,.,.2.2.o.,.3.B +.a.,.1.,.6.;.5.L H s.,.2.4.2.,.2.;.2.! S x.>.>.1.2.O.<.2.t.=.$.8 M.,.1.6.1.",
"4.,.G n 9.9.8.,.,.,.,.9..._ S 7.9.5.5.2.1.o.<.<.4.*.v $.a.,.2.2.1.4.| M ( d.2.,.o.,.2.2.2...F G d.5.1.1.<.o.8.,.:.=.~ x h.2.1.,.1.",
"<...I M d.o.,.o.,.6.,.$.` G M 8.4.,.,.2.<.<.2.2.2._ a *.a.,.1.o.2.5.} F L 9.,.,.5.,.2.6.` ` G M j.| 7.,.o.2...2.,.,.K 8 k.,.7.o.2.",
"=.7.K q j.2.5.6.,.,.,._ ,.! q 7.u.4.,.,.,.2.2.;.4.[ v *.w.,.2.6.,.3.| M L j.2.2.,.1.*...| | K M j.6.4.3.2.,.,.1.*.7.! a b.,.,.y.3.",
"~ R 3 ; *.h.3.E ) _ [ E ^ a % { f.y.4.;. .{ [ ~ ! c 2 T t.f.w.%.$.^ c = c y.w.,.E { ! ! ! D 2 3 q.p.4.3.*.{ *._ _ R ; 2 t.z.7.;.3.",
"c 2 - X 2 i i > = ; y d a % X , r r 8 3 * , 3 8 d 3 . : r y 2 : 9 d > - - 7 i y - - 2 v d 2 X , 3 a p r & ; : 9 y i : o , p p , : ",
"V.f.p.i.f.f.w.@.6 #.n.x.f.i.f.p.<.y.u.;.r D b.c.p.f.p.f.t.q.N C f.x.f.i.f.f.i.i.D a i.n.f.f.p.i.t.t.p.7.R 7 3.Z.f.f.i.f.p.q.-.o @.",
"p.4.q.y.q.r.a.f.y v.x.q.4.t.;.{ P =.t.g.D t.b.t.q.w.4.4.i.f.R D q.y.w.w.q.4.w.w.@.R n.y.q.4.q.4./ ~ 7.g.q.c B.y.5.q.7.6.t.p.p.8 3.",
"4.*.;.2.3.,.,.*.x 9.6.6.4.2.| y.7.7.<.=.s 3.t.,.4.,.o.1.4.6.F L ,.,.,.3.4.4.8.4.P G j.,.8.,...` 7.=.<.2.{ a B.3.3.5.2.<.,.7.:.1 ,.",
"<.,.2.2.1.5.2.! x s.,.5...` 8.8.O.O.7...m ,.y.6.2.,.,.,.1.{ n L 1.,.,.1.,.,.2.` G I g.4.O...o.s.7.7.7.*.Q M s.2.1.,.<.2.,.;.| q 1.",
"<.2.2.1.*.,.*.L M y.s.2.2.2.,.o.<.O.<.Y a 3.7.3.,.,.1.o.,.X.S K ,.,.2.2.2.,.4.*.G I a.2.2...| 8.O.2.O.] G S f.2.8.O.<.<.<.*.P a 1.",
"2.*.| 2.5.4.2.~ z k.*.4.2.,.2.8.O.7.7.~ a 4.4.| o.o.2.1.3.[ C K 1.1.,.1.,.3.:.| S P u.,.6.6.5.2.<.O.7.2.D a b.*.` | ,.2.4.6.E c 3.",
"a.6.| $.@.~ R a , 4.f.4.4.q.^ ! | ` Q N < [ i.w.| _ ' _ ^ C e T w.w.3.@.&.{ ^ T 3 A f.p.4.;.*.[ _ ! I ! e 3 p.f.....| ~ E E y = 0.",
"v C y 2 : 2 i - X r d d c < 8 < 8 8 f 2 . 2 V V b 9 4 & 9 2   : d C c 9 7 2 e 3 - $ r C p c 8 : 6 9 a f o - r c S q 6 5 6 u $ = e ",
"6.,.4.E - +.l.0.3.3.,.2.;.{ : R i.q.6.6.3.3.4.4.8.*.7 n q.w.3.3.4.6.q.;.d u e.i.0.4.;.q.q.-.D 2 ,.w.6.q.3.;.4.3.6.w.E   | x.3.3.;.",
"6.y.y.w.i z.v.r.w.6.7.a.u.t.A i.z.y.y.w.w.4.t.t.y.t.J $.x.a.w.w.6.t.w.p.^ W v.l.w.a.t.t.t.p.&.B v.f.w.w.w.w.w.w.6.w.6.y v.f.e.r.w.",
"o.2.2.3.i v.q.3.2.,.<.<.4.3.A p.y.3.3.5.4.,.6.6.4.3.K *.f.4.3.4.2.,.2.4.R ^ f.3.,.4.,.,.2.4.[ S m.5.,.5.4.4.<.7.4.4.4.z B.3.3.5.2.",
"2.,.;.` d l.3.3.2.2.O.<.,. .d q.w.1.,.3.4.3.2.2.2.| x { y.3.3.3.<.<.O...S L a.,.2.,.o.<.2.o.L F h.>.3.5.,.,.=.4.4.4.E 8 x.0.3.3.,.",
"7.O.<.P c g.q.4.,.2.<.<.2.[ c 6.w.1.1.1.1.,.4.,.7.` x ..s.4.4.<.O.8.O.] M I d.4.1.o.2.2.,.X.F n d.5.5.6.,.1.<.<.,.2.G a k.t.4.3.1.",
"O.<.4.P c g.3.3.,.2.,.<.2.~ c w.6.,.,.5.,.2.2.2.,.` M O.y.;.,.4.O.7.O.O.M ! f.,.,.,.2.o.,.| F F d.5.,.1.1.2.2.,.<.<.I x M.2.*.6.4.",
"O.7.<.P f j.t.4.4.2.1.1.3.E c w.9.5.3.6.,.,.,.3.*.` z | y.*.*.,.7.<.7.] C ! f.4.4.4.5.1.3.>.F J f.w.,.3.3.1.,.;.4.*.K a k.4.| 3.3.",
"` Y ~ a 7 7.t.4.[ ` _ _ { n 6 $.a.6.3.,.| | [ [ | S < P u.2.| | { ~ | G 3 S f.i.%.+.[ @.#.E t c a.9.,.3.,.[ { | ` ~ a , t.p.| | [ ",
"s w q * $ a D p r 8 v C h ; $ y J C C c y 6 c n c 6 % 7 C S v q p f f 2 - 8 N S c e i B N y = & C S v n a 9 8 v v a X % c P S a r ",
"O. . .P ~ / &.K % K 3.4.$.} ) _ >.>.} J > v >.3.$.[ _ ` *.*.| [ | &.*.~ R ^ { / i r +.0.;.#.[ ) [ 3.$.{ v & ~ y.*.*.[ _ [ ;.| &._ ",
"y.y.7...u.y.i.y.a z.v.i.0.r.h.w.w.w.f.a.V 3.c.x.r.a.y.a.y.w.y.u.t.y.8.4.4.7.f.u.^ J v.l.i.w.a.a.a.i.w.f.3.d v.j.w.i.y.p.y.y.t.d.y.",
"4.7.=. .@.:.;.w.d z.w.0.3.5.5.3.q.3.,.r.C r.a.3.3.3.3.3.3.3.4.,.4.4.2...| | 2.4._ J b.4.5.3.>.,.4.4.;.6.%.c C.3.4.3.3.3.4.4.3.*.1.",
"2.4.5.4.| 4.3.@.d l.3.w.0.5.5.5.4.4.3.*.v ;.q.5.3.0.3.3.5.6.5.2.1.5.,.1.o.X.O.,.K G z.*.5.3.,.2.3.4.4.4.E n M.>.3.5.5.5.3.1.4.,.1.",
"2.*.5.5.,.3.q.K V l.i.0.3.3.1.5.;.4.7.! M 3.a.5.5.5.5.1.3.,.,.1.,.4.*.1.2.o.2...S R z.3.6.,.,.2.3.3.:.=.F F x.3.3.3.3.>.3.3.5.3.3.",
"4.,.| ,.| { | v r ;.w.3.5.5.X.>... .` M 8 | w.6.3.,.>.>.X.} } } ,.3.>.,.| { | P a D i.a.0.6.,.$.,...| ! z 0 w.f.0.5.>.#.>.X.} _ | ",
"F L b L v x v ; $ n E J T L V H S z M 8 . a L E ) K Z F F n b x C T J H C x C a = : T E Z R K S G v a v & @ J ( J E L F L C b M y ",
"^ [ E 8 D -.+.R E G ! _ +.E u D @.+.[ ^ J J E [ +.#.u Z #.#.[ ) W [ W V y ^ %.^ E R R +.W ^ D u W #.^ +.L G R [ %.^ W > W 3.) [ R ",
"a.f.4.r z.n.z.u.p.a.s.y.i.i.d q.C.l.p.d.f.f.f.d.r.r.Z #.v.x.f.w.f.r.f.E T v.z.f.f.f.r.l.r.l.$.V m.x.f.f.a.a.a.f.i.r.e.u v.m.r.i.p.",
",.7.y.a B.4.=.4.,.2.<.2.4.t.a p.i.:.,.o.,.1.2.,.w.r.T %.f.5.3.2.3.3.a.E _ M.6.3.3.4.,.4.6.w.[ n M.5.3.>.,.2.2.2.q.w.w.r M.5.5.5.1.",
"2.o.` w g.4.,.,.o.O.o.<.o.| m 3.t.3.2.2.2.o.o.2.3.>.b } a.,.2.o.,.,.} G L 6.,.3.4.,.,.5.1.*.L H j.,.1.1.<.<.<.o.3.,.[ a k.5.2.X.1.",
"2.,.I x g.8.<.2.2.7.O.<...I n 8.6.<.2.<.O.O.2.<.>.| z } a.1.2.,.2.2.` H _ s.,.2.1.,.,.1.| _ F H d.,.<.O.<.o.o.,.2.,.K c h.5.<.2.1.",
"..2.! s k.4...2.,.2.O.] | ~ 0 a.7.2.,.<.,.<.2.o.,.} n @.8.;.,.2.,.o.| n L d.,.,.1.3.2.o.| | F F j.4.7.<.<.2.2.1.,.5.K z d.1...8.3.",
"*.| c < t.f.t.;.@.*.o.` ` D , ;.u.7.,.,.*.,.;.$.*.K r _ i.u.4.:.%.,.L r C y.9.3.| | @.[ _ _ c a y.7.:.,.o.,.$.>.$.$.c 8 f.s.3.4.3.",
"D B < % J @.^ c v c D J D : - B [ ^ Q K D S S C S 8 - c ! / D T Z J 9 ; y E #.J C c C J C z $ 2 !  .Q Q F C C C C C < - D &.Q D J ",
"/ D C B A W R f O a ^ / T A C B C D J C : 3 D R R D A A D D e 2 D E D C B Z E Z r $ Z @.R J V C A A D K r % V E J E v Z C D A O i ",
"Z.z.z.f.i.p.l.i.r i.C.z.l.z.f.u.3.t.p.p.d *.n.n.g.g.g.p.z.i.R S j.v.f.f.f.a.z.f.^ J x.h.f.z.f.p.7.7.g.f.&.u z.n.f.x.f.f.p.z.i., 3.",
"4.:.3.7.3.4.q.y.a b.y.3.q.,.....{ ,.4.s.x t.f.3.4.4.2.2.4.4.R G 4.3.3.6.4.4.3.4._ K b.4.3.3.,.*. . .=.7.4.v n.w.5.,.6.1.3.q.y.2 3.",
"4.3.,.<.2.,.*.*.q j.:.4.4.| *.s.o.2.,.*.S 4.t.,.o.<.,.,.4.=.G K 3.,.,.1.4.1.1.,.L L j.2.,.,.{ 2.u.O.7.4.~ S d.2.4.| 6.1.,.,.,.r ,.",
"4.8.<.O.7.2.o.I z c.4.4.O.o.<.<.O.<.<.~ x | t.6.<.2.2.<.1.} C H 4.1.4.,.1.2.,.X.F H a.<.,.,.*.8.O.O.O.o.F A k.7.2.<.,.o.,.1.E r ,.",
"*.2.O.,.O.2.<.I z u.4.3.<.<.9.o.O.O.7.| a ,.f.| ,.,.<.o.,.| C [ ,.2.,.,.1.4.,.| F L j.1.2.o.1.2.7.7.O.<.G f k. .| 2.2.,.,.6.E b 3.",
"y.6.=.,...] ..G a q.z.t.,...O.O.<.| *.K 2 *.f.*.| X.| ,.,.E i J 4.w.,.,.,.*.*._ z L a.3.6.,.3.| | o...{ v 8 z.y.` o.,.>.$.>.b t 3.",
"=.[ G K F M S 6 . R 3.~ ! ` M M G M K r % A { *.K J n n Z y = N $.*.E R J C D d $ 0 [ ,.[ [ R S F n K S < , / *.| G n b C Z 5 = E ",
"m G f r + 2 A a r a x m A p + 3 C B A B p a v S D d & 2 N V u i a M S d e : i Z a q w m A f e + r D C D c y y B G D e X y Z u i a ",
"s.b.g.t.e e.Z.n.k.g.k.s.t.p.f -.Z.v.v.j.z.f.g.k.b.i.B ! x.m.z.z.g.k.c.t.T T z.Z.z.k.g.g.p.i./ f n.V.f.v.z.l.l.c.v.i.;.2 l.C.v.l.z.",
",.7.4.p.d A.w.3.,.,.2.7.e.p.f p.p.4.3.3.3.4.4.3.,.a.D *.c.0.0.4.2.<.:.y./ W B.0.:.4.4.,.t.p.&.D n.w.*.3.3.4.4.3.,.4.f.y Z.r.0.3.3.",
"2.4.;.&.u z.;.w.3.2.,.,.4.-.d i.4.3.,.,.=.2.4.4.*.4.v | a.,.3.*.<.*.:.q.T R l.%.3.2.,.=.,.:.! D c.6.3.3.4.,.4.,.6.3.| 9 x.;.3.q.,.",
",.2.4.[ 8 f.w.3.,.,.,.2.4.^ c y.6.5.2.1.,.,.2.,.6.{ x ` y.6.w.4.8.<.8.| B R i.r.3.,.3.2.5.$.K J j.,.,.4.1.,.4.1.o.,.G z j.7.w.,.1.",
"7.4...L d j.3.3.6.,.1.2.*.R d 3.w.1.1.1.2.2.2.*.<.Y M ,.8.,.,.,.O...,.` J { f.3.4.1.5.,.5.$.Z n h.,.1.1.1.,.2.1.,.<.L x g...,.<.<.",
"O.8.=.Q n f.*.6.1.o.,.1.1.[ C r.w.1.,.1.,.2.2.,.2.! v ..a.,.,.4.<.7.8...S ! f.3.3.,.1.| 3.,.J H h.3.5.1.,.1.1.,.5...G x N.7...4.3.",
",...,.G < j.u.3.1.1.*.>.3.J V 3.w.6.3.3.*.*.,.,.*.` a ` 8.*.| =.O.,...[ z D v.3.3.,.,.,.3.} C F h.5.5.3.,.3.*.,.*.,.K 1 f.8.! ;.,.",
"P P m q o ! u.*.K S ~ J K 8 $ K 6.w.$.| E F D E K r < C q.4.! G G P G f , p :.t.~ G K E K n ; 7 >.a.>.@.} Z R K E S < < [ y.*.K T ",
"q s s o o 3 a * % % v v 9 6 5 7 c r 9 > $ = V N d 8 & < f c a 8 1 w q q * , a 3 * . a v c r > 6 y c e y = $ 6 C c r ; 2 3 v s q < ",
"k.p.k.=.N.k.g.7.< 4.V.B.x.z.h.c.x.n.n.i.y E v.A.v.v.v.f.j.c.b.j.g.k.g.u.p.p.g.p.D A c.B.c.c.j.h.f.B.x.f.@.7 a.S.M.v.z.n.u.b.j.c.k.",
"=.7.:.~ O.:.4.p.8 V.p.*.6.6.,.3.;.;.3.z.Z a.x.3.3.;.q.q.4.:.3.4.7.4.=. . .=.4.u.| ! n.a.3.3.3.3.0.3.3.3.f.h S.w.3.3.;.4.4.3.:.4.5.",
":.7.7.*.| *.*.4.a x.3.,.3.q.6.3.7.3.4.;.V %.f.3.q.3.,.5.4.,.3.4.4.,.6.2...O.=.:.K J d.%.,.,.1.2.3.3.w.6.[ b h.4.3.4.6.5.4.1.,.4.1.",
"2.*.,.<.o.2.<.! z w.w.w.*.,.,.,.4.<.=.| C >.a.>.3.3.3.3.1.,.,.4.2.*.2.2.*.,.,.| L E j.;.0.5.1.,.5.5.,.,.J M c.3.3.,.1.2.*.4.2.o.,.",
",.,.o.8.o.,.2.L n y.w.>.5.6.X.6.o.,.,.` x ,.a.5.>.5.1.,.2.2.o.o.,.2.o.o.<.,.2...F L f.1.5.,.,.1.2.,.,.$.L x c.1.6.,.,.,.2.2.2.o.,.",
"1.,.U X.I ! K 9 $ $.d.w.1.1.U X.` P ` 9 & J d.w.>.>.} ' } U H _ _ 5.} ' | I K S & z w.a.5.>.>.U | H | C ; 6 4.h.,.,.X.U ,.H H U R ",
"9 h h h 1 1 a = O = 3 3 h g g l 3 3 a >   $ : i l j j g l 9 r 5 ; y k h 0 6 r e @ = , 3 8 h j h y 7 9 y X X + e l g g j h h 5 c $ "
};
